<?xml version="1.0" encoding="UTF-8"?>
<svg width="43px" height="44px" viewBox="0 0 43 44" version="1.1" xmlns="http://www.w3.org/2000/svg" xmlns:xlink="http://www.w3.org/1999/xlink">
    <!-- Generator: Sketch 56.3 (81716) - https://sketch.com -->
    <title>Combined-Shape</title>
    <desc>Created with Sketch.</desc>
    <g id="Page-1" stroke="none" stroke-width="1" fill="none" fill-rule="evenodd">
        <g id="Desktop-HD" transform="translate(-825.000000, -632.000000)" fill="#05386B" fill-rule="nonzero">
            <g id="Group-4" transform="translate(315.000000, 337.000000)">
                <g id="Group-2" transform="translate(2.000000, 295.000000)">
                    <g id="Group" transform="translate(329.000000, 0.000000)">
                        <g id="instagram-logo" transform="translate(179.000000, 0.018293)">
                            <path d="M29.5625,0 C36.9826875,0 43,6.0173125 43,13.4375 L43,29.5625 C43,36.9826875 36.9826875,43 29.5625,43 L13.4375,43 C6.0173125,43 0,36.9826875 0,29.5625 L0,13.4375 C0,6.0173125 6.0173125,0 13.4375,0 L29.5625,0 Z M38.96875,29.5625 L38.96875,13.4375 C38.96875,8.250625 34.749375,4.03125 29.5625,4.03125 L13.4375,4.03125 C8.250625,4.03125 4.03125,8.250625 4.03125,13.4375 L4.03125,29.5625 C4.03125,34.749375 8.250625,38.96875 13.4375,38.96875 L29.5625,38.96875 C34.749375,38.96875 38.96875,34.749375 38.96875,29.5625 Z M21.5,10.75 C27.4366875,10.75 32.25,15.5633125 32.25,21.5 C32.25,27.4366875 27.4366875,32.25 21.5,32.25 C15.5633125,32.25 10.75,27.4366875 10.75,21.5 C10.75,15.5633125 15.5633125,10.75 21.5,10.75 Z M21.5,28.21875 C25.203375,28.21875 28.21875,25.203375 28.21875,21.5 C28.21875,17.7939375 25.203375,14.78125 21.5,14.78125 C17.796625,14.78125 14.78125,17.7939375 14.78125,21.5 C14.78125,25.203375 17.796625,28.21875 21.5,28.21875 Z M33.05625,11.3761875 C32.2651366,11.3761875 31.6238125,10.7348634 31.6238125,9.94375 C31.6238125,9.15263659 32.2651366,8.5113125 33.05625,8.5113125 C33.8473634,8.5113125 34.4886875,9.15263659 34.4886875,9.94375 C34.4886875,10.7348634 33.8473634,11.3761875 33.05625,11.3761875 Z" id="Combined-Shape"></path>
                        </g>
                    </g>
                </g>
            </g>
        </g>
    </g>
</svg>