<?xml version="1.0" encoding="UTF-8"?>
<svg width="51px" height="51px" viewBox="0 0 51 51" version="1.1" xmlns="http://www.w3.org/2000/svg" xmlns:xlink="http://www.w3.org/1999/xlink">
    <!-- Generator: Sketch 55.2 (78181) - https://sketchapp.com -->
    <title>instagram</title>
    <desc>Created with Sketch.</desc>
    <g id="Page-1" stroke="none" stroke-width="1" fill="none" fill-rule="evenodd">
        <g id="Desktop-HD" transform="translate(-807.000000, -569.000000)" fill="#FFFFFF" fill-rule="nonzero">
            <g id="Group-5" transform="translate(608.000000, 566.000000)">
                <g id="instagram" transform="translate(199.000000, 3.000000)">
                    <path d="M35.0625,0 C43.8631875,0 51,7.1368125 51,15.9375 L51,35.0625 C51,43.8631875 43.8631875,51 35.0625,51 L15.9375,51 C7.1368125,51 0,43.8631875 0,35.0625 L0,15.9375 C0,7.1368125 7.1368125,0 15.9375,0 L35.0625,0 Z M46.21875,35.0625 L46.21875,15.9375 C46.21875,9.785625 41.214375,4.78125 35.0625,4.78125 L15.9375,4.78125 C9.785625,4.78125 4.78125,9.785625 4.78125,15.9375 L4.78125,35.0625 C4.78125,41.214375 9.785625,46.21875 15.9375,46.21875 L35.0625,46.21875 C41.214375,46.21875 46.21875,41.214375 46.21875,35.0625 Z M25.5,12.75 C32.5411875,12.75 38.25,18.4588125 38.25,25.5 C38.25,32.5411875 32.5411875,38.25 25.5,38.25 C18.4588125,38.25 12.75,32.5411875 12.75,25.5 C12.75,18.4588125 18.4588125,12.75 25.5,12.75 Z M25.5,33.46875 C29.892375,33.46875 33.46875,29.892375 33.46875,25.5 C33.46875,21.1044375 29.892375,17.53125 25.5,17.53125 C21.107625,17.53125 17.53125,21.1044375 17.53125,25.5 C17.53125,29.892375 21.107625,33.46875 25.5,33.46875 Z M39.20625,13.4926875 C38.2679527,13.4926875 37.5073125,12.7320473 37.5073125,11.79375 C37.5073125,10.8554527 38.2679527,10.0948125 39.20625,10.0948125 C40.1445473,10.0948125 40.9051875,10.8554527 40.9051875,11.79375 C40.9051875,12.7320473 40.1445473,13.4926875 39.20625,13.4926875 Z" id="Combined-Shape"></path>
                </g>
            </g>
        </g>
    </g>
</svg>