<?xml version="1.0" encoding="UTF-8"?>
<svg width="58px" height="58px" viewBox="0 0 58 58" version="1.1" xmlns="http://www.w3.org/2000/svg" xmlns:xlink="http://www.w3.org/1999/xlink">
    <!-- Generator: Sketch 55.2 (78181) - https://sketchapp.com -->
    <title>linked-in-logo-key</title>
    <desc>Created with Sketch.</desc>
    <g id="Page-1" stroke="none" stroke-width="1" fill="none" fill-rule="evenodd">
        <g id="Desktop-HD" transform="translate(-709.000000, -566.000000)" fill="#FFFFFF" fill-rule="nonzero">
            <g id="Group-5" transform="translate(608.000000, 566.000000)">
                <g id="linked-in-logo-key" transform="translate(101.000000, 0.000000)">
                    <path d="M48.6285113,34.2697858 C48.6285113,32.3488739 48.3814817,30.6733851 47.8877252,29.2427185 C47.3938678,27.8122522 46.7145113,26.6270086 45.8504626,25.6869879 C44.9862122,24.7469672 43.9676313,24.0521693 42.7948209,23.6025941 C41.6218087,23.153019 40.3357217,22.9282314 38.93656,22.9282314 C37.8249774,22.9282314 36.8581426,23.0610604 36.0347443,23.3267185 C35.2120522,23.5923765 34.5020313,23.9397755 33.905287,24.3689154 C33.3085426,24.7980553 32.8043965,25.257848 32.3928487,25.7482936 C31.9813009,26.2387392 31.6315861,26.6883143 31.3434017,27.097019 L31.3434017,23.5412884 L22.947927,23.5412884 C22.9890817,24.2360864 23.0096591,25.5848117 23.0096591,27.5874646 L23.0096591,35.1896718 C23.0096591,35.1896718 22.9890817,39.7058584 22.947927,48.7382314 L31.3434017,48.7382314 L31.3434017,34.63762 C31.3434017,34.2697858 31.36408,33.9125699 31.4052348,33.5648705 C31.4463896,33.2173713 31.5285983,32.9006252 31.6520626,32.6148325 C31.9813009,31.8789637 32.485447,31.1844663 33.1642991,30.5301382 C33.843353,29.8765112 34.7798261,29.5493472 35.9733148,29.5493472 C37.4960417,29.5493472 38.5866435,30.0703454 39.24512,31.1125423 C39.9036974,32.1545389 40.2329357,33.5341174 40.2329357,35.2507772 L40.2329357,48.7382314 L48.6285113,48.7382314 L48.6285113,34.2697858 L48.6285113,34.2697858 Z M14.058393,20.1082694 C15.5399652,20.1082694 16.7128765,19.6791295 17.577127,18.8208497 C18.4413774,17.9625699 18.8529252,16.9408083 18.8117704,15.7555648 C18.8117704,14.5294508 18.3899339,13.4974715 17.5462609,12.6596269 C16.7025878,11.8217824 15.5605426,11.4028601 14.1201252,11.4028601 C12.6797078,11.4028601 11.5273739,11.8217824 10.6631235,12.6596269 C9.79887304,13.4974715 9.36674783,14.5294508 9.36674783,15.7555648 C9.36674783,16.9408083 9.77829565,17.9625699 10.6013913,18.8208497 C11.424487,19.6791295 12.5562435,20.1082694 13.9966609,20.1082694 L14.058393,20.1082694 L14.058393,20.1082694 Z M18.2561809,23.5413886 L9.86060522,23.5413886 L9.86060522,48.7381313 L18.2561809,48.7381313 L18.2561809,23.5413886 Z M56.4682957,0 C56.8798435,0 57.22976,0.132829016 57.5177426,0.398487047 C57.8056243,0.664145078 57.9499687,1.00132642 57.9499687,1.41003109 L57.9499687,56.5852608 C57.9499687,56.9939655 57.8055235,57.3308463 57.5177426,57.5968048 C57.22976,57.8624629 56.8798435,57.9951917 56.4682957,57.9951917 L1.52676174,57.9951917 C1.11521391,57.9951917 0.765398261,57.8627634 0.477314783,57.5968048 C0.189231304,57.3308463 0.0451895652,56.9939655 0.0451895652,56.5852608 L0.0451895652,1.41003109 C0.0451895652,1.00132642 0.189231304,0.664145078 0.477314783,0.398487047 C0.765398261,0.132829016 1.11521391,0 1.52676174,0 L56.4682957,0 L56.4682957,0 Z" id="Shape"></path>
                </g>
            </g>
        </g>
    </g>
</svg>