<?xml version="1.0" encoding="UTF-8"?>
<svg width="43px" height="43px" viewBox="0 0 43 43" version="1.1" xmlns="http://www.w3.org/2000/svg" xmlns:xlink="http://www.w3.org/1999/xlink">
    <!-- Generator: Sketch 56.3 (81716) - https://sketch.com -->
    <title>Shape</title>
    <desc>Created with Sketch.</desc>
    <g id="Page-1" stroke="none" stroke-width="1" fill="none" fill-rule="evenodd">
        <g id="Desktop-HD" transform="translate(-736.000000, -632.000000)" fill="#05386B" fill-rule="nonzero">
            <g id="Group-4" transform="translate(315.000000, 337.000000)">
                <g id="Group-2" transform="translate(2.000000, 295.000000)">
                    <g id="Group" transform="translate(329.000000, 0.000000)">
                        <g id="linked-in-logo" transform="translate(90.000000, 0.000000)">
                            <path d="M36.0521722,25.4069102 C36.0521722,23.9827858 35.8690295,22.7406131 35.5029687,21.6799465 C35.136833,20.6194284 34.6331722,19.7407133 33.9925843,19.0438014 C33.351847,18.3468895 32.5966922,17.8317807 31.7271948,17.4984749 C30.8575478,17.1651693 29.9040695,16.9985164 28.86676,16.9985164 C28.0426557,16.9985164 27.3258643,17.0969931 26.7154139,17.2939465 C26.105487,17.4908998 25.5790922,17.7484543 25.1366783,18.0666097 C24.6942643,18.3847651 24.3205009,18.7256459 24.0153878,19.0892522 C23.7102748,19.4528584 23.4510035,19.7861641 23.2373495,20.0891693 L23.2373495,17.4530242 L17.0131183,17.4530242 C17.0436295,17.968133 17.0588852,18.9680501 17.0588852,20.4527755 L17.0588852,26.0888946 C17.0588852,26.0888946 17.0436295,29.4371019 17.0131183,36.1335164 L23.2373495,36.1335164 L23.2373495,25.6796148 C23.2373495,25.4069102 23.25268,25.1420777 23.2831913,24.8843005 C23.3137026,24.6266718 23.3746505,24.3918428 23.4661843,24.179962 C23.7102748,23.6344041 24.0840383,23.1195181 24.5873252,22.6344128 C25.0907617,22.1498273 25.7850435,21.9072746 26.6698713,21.9072746 C27.7987895,21.9072746 28.6073391,22.2935319 29.09552,23.0661952 C29.5837757,23.8387099 29.8278661,24.8615008 29.8278661,26.1341969 L29.8278661,36.1335164 L36.0521722,36.1335164 L36.0521722,25.4069102 L36.0521722,25.4069102 Z M10.4226017,14.9078549 C11.5210087,14.9078549 12.3905809,14.5896995 13.0313183,13.9533886 C13.6720557,13.3170777 13.9771687,12.5595648 13.9466574,11.6808498 C13.9466574,10.7718342 13.6339165,10.0067461 13.0084348,9.38558546 C12.382953,8.76442488 11.5362643,8.45384456 10.4683687,8.45384456 C9.40047302,8.45384456 8.54615651,8.76442488 7.90541915,9.38558546 C7.26468174,10.0067461 6.94431305,10.7718342 6.94431305,11.6808498 C6.94431305,12.5595648 7.24942609,13.3170777 7.85965217,13.9533886 C8.46987829,14.5896995 9.30893915,14.9078549 10.3768348,14.9078549 L10.4226017,14.9078549 L10.4226017,14.9078549 Z M13.5347548,17.4530984 L7.3104487,17.4530984 L7.3104487,36.1334422 L13.5347548,36.1334422 L13.5347548,17.4530984 Z M41.8644261,0 C42.1695391,0 42.42896,0.0984766843 42.6424643,0.295430052 C42.8558939,0.49238342 42.9629078,0.742362691 42.9629078,1.04536788 L42.9629078,41.9511416 C42.9629078,42.2541468 42.8558191,42.5039033 42.6424643,42.7010794 C42.42896,42.8980328 42.1695391,42.9964352 41.8644261,42.9964352 L1.13190957,42.9964352 C0.826796519,42.9964352 0.567450435,42.8982556 0.353871305,42.7010794 C0.140292174,42.5039033 0.0335026087,42.2541468 0.0335026087,41.9511416 L0.0335026087,1.04536788 C0.0335026087,0.742362691 0.140292174,0.49238342 0.353871305,0.295430052 C0.567450435,0.0984766843 0.826796519,0 1.13190957,0 L41.8644261,0 L41.8644261,0 Z" id="Shape"></path>
                        </g>
                    </g>
                </g>
            </g>
        </g>
    </g>
</svg>