<?xml version="1.0" encoding="UTF-8"?>
<svg width="813px" height="25px" viewBox="0 0 813 25" version="1.1" xmlns="http://www.w3.org/2000/svg" xmlns:xlink="http://www.w3.org/1999/xlink">
    <!-- Generator: Sketch 56.3 (81716) - https://sketch.com -->
    <title>Group</title>
    <desc>Created with Sketch.</desc>
    <g id="Page-1" stroke="none" stroke-width="1" fill="none" fill-rule="evenodd" stroke-linecap="square">
        <g id="Desktop-HD" transform="translate(-314.000000, -542.000000)" stroke="#379683" stroke-width="4">
            <g id="Group" transform="translate(315.000000, 544.000000)">
                <path d="M1.25,18.3325454 L20.75,2.83254541" id="Line-2" transform="translate(11.000000, 10.582545) rotate(-6.519802) translate(-11.000000, -10.582545) "></path>
                <path d="M18.75,18.3325454 L38.25,2.83254541" id="Line-2" transform="translate(28.500000, 10.582545) scale(-1, 1) rotate(-6.519802) translate(-28.500000, -10.582545) "></path>
                <path d="M36.3436995,18.1662727 L55.8436995,2.66627271" id="Line-2" transform="translate(46.093699, 10.416273) rotate(-6.519802) translate(-46.093699, -10.416273) "></path>
                <path d="M53.8436995,18.1662727 L73.3436995,2.66627271" id="Line-2" transform="translate(63.593699, 10.416273) scale(-1, 1) rotate(-6.519802) translate(-63.593699, -10.416273) "></path>
                <path d="M71.3436995,18.3325454 L90.8436995,2.83254541" id="Line-2" transform="translate(81.093699, 10.582545) rotate(-6.519802) translate(-81.093699, -10.582545) "></path>
                <path d="M88.8436995,18.3325454 L108.343699,2.83254541" id="Line-2" transform="translate(98.593699, 10.582545) scale(-1, 1) rotate(-6.519802) translate(-98.593699, -10.582545) "></path>
                <path d="M106.437399,18.1662727 L125.937399,2.66627271" id="Line-2" transform="translate(116.187399, 10.416273) rotate(-6.519802) translate(-116.187399, -10.416273) "></path>
                <path d="M123.937399,18.1662727 L143.437399,2.66627271" id="Line-2" transform="translate(133.687399, 10.416273) scale(-1, 1) rotate(-6.519802) translate(-133.687399, -10.416273) "></path>
                <path d="M141.343699,18.3325454 L160.843699,2.83254541" id="Line-2" transform="translate(151.093699, 10.582545) rotate(-6.519802) translate(-151.093699, -10.582545) "></path>
                <path d="M158.843699,18.3325454 L178.343699,2.83254541" id="Line-2" transform="translate(168.593699, 10.582545) scale(-1, 1) rotate(-6.519802) translate(-168.593699, -10.582545) "></path>
                <path d="M176.437399,18.1662727 L195.937399,2.66627271" id="Line-2" transform="translate(186.187399, 10.416273) rotate(-6.519802) translate(-186.187399, -10.416273) "></path>
                <path d="M193.937399,18.1662727 L213.437399,2.66627271" id="Line-2" transform="translate(203.687399, 10.416273) scale(-1, 1) rotate(-6.519802) translate(-203.687399, -10.416273) "></path>
                <path d="M211.437399,18.3325454 L230.937399,2.83254541" id="Line-2" transform="translate(221.187399, 10.582545) rotate(-6.519802) translate(-221.187399, -10.582545) "></path>
                <path d="M228.937399,18.3325454 L248.437399,2.83254541" id="Line-2" transform="translate(238.687399, 10.582545) scale(-1, 1) rotate(-6.519802) translate(-238.687399, -10.582545) "></path>
                <path d="M246.531098,18.1662727 L266.031098,2.66627271" id="Line-2" transform="translate(256.281098, 10.416273) rotate(-6.519802) translate(-256.281098, -10.416273) "></path>
                <path d="M264.031098,18.1662727 L283.531098,2.66627271" id="Line-2" transform="translate(273.781098, 10.416273) scale(-1, 1) rotate(-6.519802) translate(-273.781098, -10.416273) "></path>
                <path d="M281.843699,18.3325454 L301.343699,2.83254541" id="Line-2" transform="translate(291.593699, 10.582545) rotate(-6.519802) translate(-291.593699, -10.582545) "></path>
                <path d="M299.343699,18.3325454 L318.843699,2.83254541" id="Line-2" transform="translate(309.093699, 10.582545) scale(-1, 1) rotate(-6.519802) translate(-309.093699, -10.582545) "></path>
                <path d="M316.937399,18.1662727 L336.437399,2.66627271" id="Line-2" transform="translate(326.687399, 10.416273) rotate(-6.519802) translate(-326.687399, -10.416273) "></path>
                <path d="M334.437399,18.1662727 L353.937399,2.66627271" id="Line-2" transform="translate(344.187399, 10.416273) scale(-1, 1) rotate(-6.519802) translate(-344.187399, -10.416273) "></path>
                <path d="M351.937399,18.3325454 L371.437399,2.83254541" id="Line-2" transform="translate(361.687399, 10.582545) rotate(-6.519802) translate(-361.687399, -10.582545) "></path>
                <path d="M369.437399,18.3325454 L388.937399,2.83254541" id="Line-2" transform="translate(379.187399, 10.582545) scale(-1, 1) rotate(-6.519802) translate(-379.187399, -10.582545) "></path>
                <path d="M387.031098,18.1662727 L406.531098,2.66627271" id="Line-2" transform="translate(396.781098, 10.416273) rotate(-6.519802) translate(-396.781098, -10.416273) "></path>
                <path d="M404.531098,18.1662727 L424.031098,2.66627271" id="Line-2" transform="translate(414.281098, 10.416273) scale(-1, 1) rotate(-6.519802) translate(-414.281098, -10.416273) "></path>
                <path d="M422.093699,17.9162727 L441.593699,2.41627271" id="Line-2" transform="translate(431.843699, 10.166273) rotate(-6.519802) translate(-431.843699, -10.166273) "></path>
                <path d="M439.593699,17.9162727 L459.093699,2.41627271" id="Line-2" transform="translate(449.343699, 10.166273) scale(-1, 1) rotate(-6.519802) translate(-449.343699, -10.166273) "></path>
                <path d="M457.187399,17.75 L476.687399,2.25" id="Line-2" transform="translate(466.937399, 10.000000) rotate(-6.519802) translate(-466.937399, -10.000000) "></path>
                <path d="M474.687399,17.75 L494.187399,2.25" id="Line-2" transform="translate(484.437399, 10.000000) scale(-1, 1) rotate(-6.519802) translate(-484.437399, -10.000000) "></path>
                <path d="M492.187399,17.9162727 L511.687399,2.41627271" id="Line-2" transform="translate(501.937399, 10.166273) rotate(-6.519802) translate(-501.937399, -10.166273) "></path>
                <path d="M509.687399,17.9162727 L529.187399,2.41627271" id="Line-2" transform="translate(519.437399, 10.166273) scale(-1, 1) rotate(-6.519802) translate(-519.437399, -10.166273) "></path>
                <path d="M527.281098,17.75 L546.781098,2.25" id="Line-2" transform="translate(537.031098, 10.000000) rotate(-6.519802) translate(-537.031098, -10.000000) "></path>
                <path d="M544.781098,17.75 L564.281098,2.25" id="Line-2" transform="translate(554.531098, 10.000000) scale(-1, 1) rotate(-6.519802) translate(-554.531098, -10.000000) "></path>
                <path d="M562.187399,17.9162727 L581.687399,2.41627271" id="Line-2" transform="translate(571.937399, 10.166273) rotate(-6.519802) translate(-571.937399, -10.166273) "></path>
                <path d="M579.687399,17.9162727 L599.187399,2.41627271" id="Line-2" transform="translate(589.437399, 10.166273) scale(-1, 1) rotate(-6.519802) translate(-589.437399, -10.166273) "></path>
                <path d="M597.281098,17.75 L616.781098,2.25" id="Line-2" transform="translate(607.031098, 10.000000) rotate(-6.519802) translate(-607.031098, -10.000000) "></path>
                <path d="M614.781098,17.75 L634.281098,2.25" id="Line-2" transform="translate(624.531098, 10.000000) scale(-1, 1) rotate(-6.519802) translate(-624.531098, -10.000000) "></path>
                <path d="M632.281098,17.9162727 L651.781098,2.41627271" id="Line-2" transform="translate(642.031098, 10.166273) rotate(-6.519802) translate(-642.031098, -10.166273) "></path>
                <path d="M649.781098,17.9162727 L669.281098,2.41627271" id="Line-2" transform="translate(659.531098, 10.166273) scale(-1, 1) rotate(-6.519802) translate(-659.531098, -10.166273) "></path>
                <path d="M667.374798,17.75 L686.874798,2.25" id="Line-2" transform="translate(677.124798, 10.000000) rotate(-6.519802) translate(-677.124798, -10.000000) "></path>
                <path d="M684.874798,17.75 L704.374798,2.25" id="Line-2" transform="translate(694.624798, 10.000000) scale(-1, 1) rotate(-6.519802) translate(-694.624798, -10.000000) "></path>
                <path d="M702.687399,17.9162727 L722.187399,2.41627271" id="Line-2" transform="translate(712.437399, 10.166273) rotate(-6.519802) translate(-712.437399, -10.166273) "></path>
                <path d="M720.187399,17.9162727 L739.687399,2.41627271" id="Line-2" transform="translate(729.937399, 10.166273) scale(-1, 1) rotate(-6.519802) translate(-729.937399, -10.166273) "></path>
                <path d="M737.781098,17.75 L757.281098,2.25" id="Line-2" transform="translate(747.531098, 10.000000) rotate(-6.519802) translate(-747.531098, -10.000000) "></path>
                <path d="M755.281098,17.75 L774.781098,2.25" id="Line-2" transform="translate(765.031098, 10.000000) scale(-1, 1) rotate(-6.519802) translate(-765.031098, -10.000000) "></path>
                <path d="M772.781098,17.9162727 L792.281098,2.41627271" id="Line-2" transform="translate(782.531098, 10.166273) rotate(-6.519802) translate(-782.531098, -10.166273) "></path>
                <path d="M790.281098,17.9162727 L809.781098,2.41627271" id="Line-2" transform="translate(800.031098, 10.166273) scale(-1, 1) rotate(-6.519802) translate(-800.031098, -10.166273) "></path>
            </g>
        </g>
    </g>
</svg>