<?xml version="1.0" encoding="UTF-8"?>
<svg width="305px" height="25px" viewBox="0 0 305 25" version="1.1" xmlns="http://www.w3.org/2000/svg" xmlns:xlink="http://www.w3.org/1999/xlink">
    <!-- Generator: Sketch 56.3 (81716) - https://sketch.com -->
    <title>Group</title>
    <desc>Created with Sketch.</desc>
    <g id="Page-1" stroke="none" stroke-width="1" fill="none" fill-rule="evenodd" stroke-linecap="square">
        <g id="Artboard" transform="translate(-238.000000, -150.000000)" stroke="#379683" stroke-width="4">
            <g id="Group" transform="translate(239.000000, 153.000000)">
                <path d="M1.25,17.3325454 L20.75,1.83254541" id="Line-2" transform="translate(11.000000, 9.582545) rotate(-6.519802) translate(-11.000000, -9.582545) "></path>
                <path d="M18.75,17.3325454 L38.25,1.83254541" id="Line-2" transform="translate(28.500000, 9.582545) scale(-1, 1) rotate(-6.519802) translate(-28.500000, -9.582545) "></path>
                <path d="M36.3436995,17.1662727 L55.8436995,1.66627271" id="Line-2" transform="translate(46.093699, 9.416273) rotate(-6.519802) translate(-46.093699, -9.416273) "></path>
                <path d="M53.8436995,17.1662727 L73.3436995,1.66627271" id="Line-2" transform="translate(63.593699, 9.416273) scale(-1, 1) rotate(-6.519802) translate(-63.593699, -9.416273) "></path>
                <path d="M71.3436995,17.3325454 L90.8436995,1.83254541" id="Line-2" transform="translate(81.093699, 9.582545) rotate(-6.519802) translate(-81.093699, -9.582545) "></path>
                <path d="M88.8436995,17.3325454 L108.343699,1.83254541" id="Line-2" transform="translate(98.593699, 9.582545) scale(-1, 1) rotate(-6.519802) translate(-98.593699, -9.582545) "></path>
                <path d="M106.437399,17.1662727 L125.937399,1.66627271" id="Line-2" transform="translate(116.187399, 9.416273) rotate(-6.519802) translate(-116.187399, -9.416273) "></path>
                <path d="M123.937399,17.1662727 L143.437399,1.66627271" id="Line-2" transform="translate(133.687399, 9.416273) scale(-1, 1) rotate(-6.519802) translate(-133.687399, -9.416273) "></path>
                <path d="M141.343699,17.3325454 L160.843699,1.83254541" id="Line-2" transform="translate(151.093699, 9.582545) rotate(-6.519802) translate(-151.093699, -9.582545) "></path>
                <path d="M158.843699,17.3325454 L178.343699,1.83254541" id="Line-2" transform="translate(168.593699, 9.582545) scale(-1, 1) rotate(-6.519802) translate(-168.593699, -9.582545) "></path>
                <path d="M176.437399,17.1662727 L195.937399,1.66627271" id="Line-2" transform="translate(186.187399, 9.416273) rotate(-6.519802) translate(-186.187399, -9.416273) "></path>
                <path d="M193.937399,17.1662727 L213.437399,1.66627271" id="Line-2" transform="translate(203.687399, 9.416273) scale(-1, 1) rotate(-6.519802) translate(-203.687399, -9.416273) "></path>
                <path d="M211.437399,17.3325454 L230.937399,1.83254541" id="Line-2" transform="translate(221.187399, 9.582545) rotate(-6.519802) translate(-221.187399, -9.582545) "></path>
                <path d="M228.937399,17.3325454 L248.437399,1.83254541" id="Line-2" transform="translate(238.687399, 9.582545) scale(-1, 1) rotate(-6.519802) translate(-238.687399, -9.582545) "></path>
                <path d="M246.531098,17.1662727 L266.031098,1.66627271" id="Line-2" transform="translate(256.281098, 9.416273) rotate(-6.519802) translate(-256.281098, -9.416273) "></path>
                <path d="M264.031098,17.1662727 L283.531098,1.66627271" id="Line-2" transform="translate(273.781098, 9.416273) scale(-1, 1) rotate(-6.519802) translate(-273.781098, -9.416273) "></path>
                <path d="M281.843699,17.3325454 L301.343699,1.83254541" id="Line-2" transform="translate(291.593699, 9.582545) rotate(-6.519802) translate(-291.593699, -9.582545) "></path>
            </g>
        </g>
    </g>
</svg>